HIERARCHY
ROOT Hips
{
     OFFSET 16.80050 96.77860 13.39480
     CHANNELS 6 Xposition Yposition Zposition Zrotation Xrotation Yrotation
     JOINT Spine
     {
          OFFSET -0.00000 11.89050 -0.00000
          CHANNELS 3 Zrotation Xrotation Yrotation
          JOINT Spine1
          {
               OFFSET -0.00000 25.65740 0.12766
               CHANNELS 3 Zrotation Xrotation Yrotation
               JOINT HEad
               {
                    OFFSET -0.00000 8.73416 0.01134
                    CHANNELS 3 Zrotation Xrotation Yrotation
                    End Site
                    {
                         OFFSET -0.29000 12.77420 2.51395
                    }
               }
               JOINT LeftShoulder1
               {
                    OFFSET 8.99000 -0.36225 -0.22000
                    CHANNELS 3 Zrotation Xrotation Yrotation
                    JOINT LeftArm
                    {
                         OFFSET 10.28270 -0.00338 0.32212
                         CHANNELS 3 Zrotation Xrotation Yrotation
                         JOINT LeftForeArm
                         {
                              OFFSET 32.76690 0.09914 -1.42434
                              CHANNELS 3 Zrotation Xrotation Yrotation
                              JOINT LeftHand
                              {
                                   OFFSET 27.56430 0.08536 1.02216
                                   CHANNELS 3 Zrotation Xrotation Yrotation
                                   End Site
                                   {
                                        OFFSET 16.74430 -0.60000 1.50291
                                   }
                              }
                         }
                    }
               }
               JOINT RightShoulder
               {
                    OFFSET -8.99000 -0.36225 -0.22000
                    CHANNELS 3 Zrotation Xrotation Yrotation
                    JOINT RightArm
                    {
                         OFFSET -10.28270 -0.00338 0.32212
                         CHANNELS 3 Zrotation Xrotation Yrotation
                         JOINT RightForeArm
                         {
                              OFFSET -32.89710 0.09914 -1.42434
                              CHANNELS 3 Zrotation Xrotation Yrotation
                              JOINT RightHand
                              {
                                   OFFSET -27.49210 0.08536 1.02216
                                   CHANNELS 3 Zrotation Xrotation Yrotation
                                   End Site
                                   {
                                        OFFSET -16.63120 -0.60000 1.50291
                                   }
                              }
                         }
                    }
               }
          }
     }
     JOINT LeftUpLeg
     {
          OFFSET 8.94580 -8.66707 0.10165
          CHANNELS 3 Zrotation Xrotation Yrotation
          JOINT LeftLeg
          {
               OFFSET 0.00000 -44.42270 1.37270
               CHANNELS 3 Zrotation Xrotation Yrotation
               JOINT LeftFoot
               {
                    OFFSET -0.25355 -42.09240 -1.46059
                    CHANNELS 3 Zrotation Xrotation Yrotation
                    JOINT LeftToes
                    {
                         OFFSET -0.04000 -4.41509 8.49910
                         CHANNELS 3 Zrotation Xrotation Yrotation
                         End Site
                         {
                              OFFSET 0.08000 -0.04745 9.77979
                         }
                    }
               }
          }
     }
     JOINT RightUpLeg
     {
          OFFSET -8.94580 -8.66707 0.10165
          CHANNELS 3 Zrotation Xrotation Yrotation
          JOINT RightLeg
          {
               OFFSET -0.00000 -44.42270 1.37270
               CHANNELS 3 Zrotation Xrotation Yrotation
               JOINT RightFoot
               {
                    OFFSET 0.25355 -42.09240 -1.46059
                    CHANNELS 3 Zrotation Xrotation Yrotation
                    JOINT RightToes
                    {
                         OFFSET 0.04000 -4.41509 8.49910
                         CHANNELS 3 Zrotation Xrotation Yrotation
                         End Site
                         {
                              OFFSET -0.08000 -0.13745 9.77979
                         }
                    }
               }
          }
     }
}
MOTION
Frames: 19
Frame Time: 0.01667
-29.05510 89.78240 -21.90700 13.32120 4.67178 93.50460 1.86928 10.66180 -0.61096 -1.58137 21.38980 -0.01964 -11.41550 2.56187 25.23560 -0.00000 -0.00000 0.00000 -113.63000 -67.57710 -79.76560 -48.47180 56.73400 -73.01330 15.47420 7.56514 -13.75830 11.80600 0.50140 0.65976 78.07320 -2.08624 65.67650 16.30810 31.10570 96.71650 18.00160 11.59950 6.13379 28.09200 -4.43569 -20.27050 -33.30950 16.93940 90.26850 -13.45360 0.72982 0.96936 9.46969 2.70909 -45.50640 -30.99230 8.19890 -4.47188 55.58000 12.92650 -80.20320 -37.78050 -13.28920 -2.17178 6.93293 -47.35210 8.75094 
-29.45540 89.71030 -22.54700 13.47330 4.74193 96.57970 2.19287 10.59560 -0.48297 -1.51253 21.29360 0.33663 -10.99240 2.80920 24.01930 -0.00000 -0.00000 0.00000 -114.98600 -67.12200 -81.96270 -49.05070 56.61390 -72.13800 15.59660 7.50364 -14.07380 11.80320 0.56820 1.11275 78.47970 -2.52681 65.90560 16.47600 31.19730 96.70480 18.00280 11.60220 6.14976 28.19800 -5.24863 -20.06700 -33.47830 17.10800 90.12320 -13.85460 0.78959 1.00597 9.29911 1.32379 -45.82790 -31.00500 8.66534 -4.17120 55.66500 12.97460 -80.71520 -36.74440 -13.49530 -2.18560 6.29073 -45.20160 8.04588 
-29.84780 89.77530 -23.11680 13.64120 5.04356 99.58230 2.04362 10.56290 -0.28662 -1.57359 21.25100 0.69110 -10.35580 2.98136 22.75180 -0.00000 -0.00000 0.00000 -116.39000 -66.55350 -84.20100 -49.51280 56.49350 -71.28110 15.61640 7.46750 -14.32110 11.73000 0.63674 1.59195 79.02380 -3.00857 66.19890 16.55790 31.31770 96.72730 18.02090 11.59660 6.10536 28.13290 -5.83633 -19.73510 -33.42690 16.72790 89.36650 -13.44610 1.18672 1.01958 9.12648 -0.41106 -46.49930 -31.12490 9.32982 -3.61269 55.54950 12.62670 -81.11780 -36.18200 -13.65670 -2.20847 5.65363 -42.93000 7.27584 
-30.22480 89.99800 -23.60650 13.77300 5.62092 102.54100 1.37522 10.57620 -0.02723 -1.78087 21.27000 1.03576 -9.62179 3.18572 21.36550 -0.00000 -0.00000 0.00000 -116.02300 -65.49100 -84.91880 -48.82180 55.84030 -71.46590 15.51050 7.48644 -14.31040 11.63400 0.70272 2.06322 79.67610 -3.54570 66.54220 16.58830 31.47610 96.75640 18.10230 11.59200 6.03183 27.85780 -6.09779 -19.14140 -33.09880 15.66090 87.77420 -12.06090 2.07434 0.99923 8.84953 -2.94487 -47.56260 -31.41800 10.21630 -2.73844 55.26640 11.82100 -81.37130 -36.10500 -13.72260 -2.22645 4.99685 -40.45340 6.36339 
-30.57780 90.39130 -24.03020 13.79050 6.41659 105.47900 0.24642 10.62420 0.27312 -2.11623 21.31430 1.36471 -8.88108 3.54551 19.84650 -0.00000 -0.00000 0.00000 -114.58000 -64.13690 -84.72720 -47.38050 54.89140 -72.27380 15.30470 7.54930 -14.08890 11.56500 0.77268 2.56009 80.38040 -4.21058 66.90170 16.65910 31.71180 96.74430 18.19610 11.58840 5.95789 27.39100 -5.91256 -18.15170 -32.45050 13.76590 85.31170 -9.68408 3.55289 0.91122 8.38308 -6.54452 -49.18440 -31.86980 11.22480 -1.58882 54.85640 10.69840 -81.38670 -36.37600 -13.62040 -2.20745 4.27824 -37.55360 5.17637 
-30.89540 90.91330 -24.45180 13.65410 7.33036 108.39100 -1.16970 10.68780 0.57962 -2.51810 21.33230 1.68520 -8.13851 4.09503 18.27680 -0.00000 -0.00000 0.00000 -112.64900 -62.68150 -84.11650 -45.48700 53.87090 -73.38430 15.06320 7.62928 -13.77170 11.55240 0.85110 3.10232 81.08710 -5.04564 67.23380 16.82290 32.05890 96.66700 18.19380 11.58220 5.92155 26.71810 -5.26473 -16.76750 -31.54140 11.17890 82.29420 -6.67300 5.57043 0.72022 7.65936 -11.06690 -51.48150 -32.47160 12.11530 -0.29726 54.39340 9.73509 -81.18780 -36.84010 -13.21330 -2.09278 3.53339 -34.21350 3.68214 
-31.16670 91.39620 -24.99750 13.47580 8.06770 111.25000 -2.23044 10.72860 0.81181 -2.96092 21.30640 2.01839 -7.36297 4.78928 16.76550 -0.00000 -0.00000 0.00000 -109.90500 -61.07390 -82.81340 -42.93920 52.66000 -74.97860 14.90870 7.69448 -13.45180 11.64540 0.93205 3.62754 81.71230 -5.97638 67.50860 17.00470 32.46550 96.57020 18.03950 11.57660 5.97220 25.97460 -4.65019 -15.09650 -30.60290 9.06741 79.35790 -4.00209 7.82778 0.47667 6.61051 -16.12930 -54.36860 -33.02500 12.51370 0.88204 54.01380 9.83937 -80.91390 -37.20230 -12.32140 -1.79895 2.87499 -30.73950 2.08209 
-31.39720 91.71140 -25.74850 13.46440 8.28141 113.99900 -2.17590 10.69500 0.88162 -3.16395 21.23460 2.36292 -6.57601 5.54766 15.39730 -0.00000 -0.00000 0.00000 -106.52500 -59.32130 -80.98350 -39.94090 51.21390 -76.87120 14.92500 7.72141 -13.21840 11.85340 1.00579 4.05686 82.19000 -6.82918 67.73690 17.06750 32.79060 96.52850 17.80430 11.57990 6.12520 25.51080 -4.66288 -13.30290 -29.84800 8.62389 77.00840 -2.50435 9.89432 0.30719 5.21880 -21.26030 -57.47870 -33.17200 12.23890 1.76394 53.82640 11.50430 -80.49760 -37.25520 -10.75790 -1.25254 2.38016 -27.48530 0.68702 
-31.58650 92.03440 -26.56250 13.53050 8.38518 116.60400 -1.91007 10.66250 0.89244 -3.30671 21.20280 2.68792 -5.84906 6.25576 14.22300 -0.00000 -0.00000 0.00000 -103.16300 -57.55780 -79.15800 -37.03250 49.61320 -78.61230 14.99390 7.72830 -13.07990 12.11780 1.06632 4.36675 82.55260 -7.47245 67.96870 16.98080 32.96120 96.54620 17.61960 11.59390 6.31940 25.18070 -4.51450 -11.82260 -29.26930 8.10061 75.23310 -1.31549 11.69800 0.13548 3.62736 -25.92310 -60.22690 -33.23420 11.55060 2.59275 53.78320 14.03360 -79.64540 -37.18430 -8.39911 -0.42845 2.04300 -24.56870 -0.24674 
-31.73970 92.33390 -27.40770 13.66250 8.44745 119.08000 -1.48781 10.65050 0.83681 -3.38548 21.25220 2.95351 -5.23842 6.78260 13.24520 -0.00000 -0.00000 0.00000 -100.22200 -55.87700 -77.63660 -34.57360 47.88390 -79.95050 14.88320 7.75897 -12.97170 12.39190 1.11078 4.55849 82.86080 -7.88525 68.24870 16.81720 33.02230 96.57430 17.56900 11.61040 6.45280 24.96640 -4.27663 -10.77820 -28.96600 7.48470 73.88820 -0.31967 13.02690 -0.03632 2.09271 -29.76720 -62.16150 -33.24190 10.57720 3.42857 53.94080 17.06290 -78.22050 -37.00340 -5.47486 0.58014 1.81982 -21.93370 -0.47281 
-31.86250 92.59380 -28.24690 13.81270 8.51974 121.47900 -1.00608 10.66370 0.72190 -3.40243 21.37970 3.12534 -4.75216 7.05780 12.41850 -0.00000 -0.00000 0.00000 -97.65660 -54.24240 -76.37050 -32.57550 45.96420 -80.91030 14.50340 7.83155 -12.85320 12.68060 1.13949 4.63750 83.11270 -8.10744 68.56350 16.61170 33.01710 96.60280 17.64510 11.62190 6.47928 24.79340 -4.04279 -10.10660 -28.88420 6.84580 72.78410 0.59083 13.92880 -0.20999 0.76721 -32.82560 -63.29490 -33.18850 9.50276 4.29686 54.24390 20.11870 -76.22070 -36.79890 -2.43403 1.61076 1.66789 -19.64280 0.30065 
-31.95720 92.81290 -29.04750 13.93980 8.61145 123.85700 -0.56486 10.69240 0.56452 -3.36264 21.54490 3.18029 -4.34024 7.10869 11.67620 -0.00000 -0.00000 0.00000 -95.40470 -52.64290 -75.31210 -30.94180 43.93900 -81.55360 13.97820 7.92351 -12.74850 13.01300 1.15881 4.63865 83.27720 -8.21986 68.84040 16.36640 32.95520 96.63940 17.77650 11.63140 6.46112 24.60210 -3.90627 -9.66182 -28.88480 6.31570 71.84090 1.39596 14.64830 -0.37406 -0.36370 -35.29880 -64.04870 -33.03100 8.51272 5.19485 54.54090 22.78520 -73.84120 -36.68960 0.23891 2.50785 1.58506 -18.22610 2.23192 
-32.02260 92.99570 -29.78620 14.01540 8.71269 126.23300 -0.24132 10.72310 0.39057 -3.28343 21.69740 3.12274 -3.93538 7.00297 10.96940 -0.00000 -0.00000 0.00000 -93.50670 -51.14280 -74.49440 -29.57680 42.02190 -81.93410 13.48510 8.00442 -12.68940 13.41210 1.18028 4.62920 83.35460 -8.33355 69.00020 16.14540 32.85700 96.64980 17.90310 11.64840 6.49154 24.36190 -3.93744 -9.31765 -28.84610 6.02087 71.07000 1.96750 15.40080 -0.50225 -1.37811 -37.28780 -64.97790 -32.75250 7.73049 6.12239 54.65680 24.78860 -71.42550 -36.81520 2.26269 3.20133 1.68771 -18.62620 5.06740 
-32.05940 93.14500 -30.45190 14.01740 8.81994 128.57001 -0.07603 10.75160 0.23006 -3.20013 21.81010 2.98843 -3.52113 6.79538 10.28270 -0.00000 -0.00000 0.00000 -91.92170 -49.76900 -73.90710 -28.36150 40.31720 -82.15390 13.12590 8.06050 -12.66870 13.87990 1.21363 4.66762 83.37700 -8.52788 69.02110 16.02840 32.76260 96.60370 17.97430 11.67130 6.59037 24.04600 -4.14954 -8.96208 -28.69680 6.01362 70.46730 2.28697 16.24570 -0.58817 -2.35518 -38.82980 -66.47020 -32.39180 7.16472 7.08355 54.47960 26.05430 -69.31810 -37.20700 3.59037 3.69205 2.16883 -21.24660 8.15868 
-32.06640 93.23810 -31.05850 13.94600 8.94588 130.81599 -0.08254 10.78970 0.09633 -3.14785 21.89780 2.82308 -3.11920 6.53031 9.62656 -0.00000 -0.00000 0.00000 -90.55090 -48.48940 -73.50890 -27.19110 38.81110 -82.32450 12.95080 8.08897 -12.64760 14.39080 1.25827 4.75516 83.37680 -8.80226 68.95470 16.00270 32.70850 96.53680 17.90790 11.68340 6.70468 23.61750 -4.56562 -8.48480 -28.43060 6.42679 69.92630 2.45034 17.05710 -0.64432 -3.32645 -39.99750 -68.48510 -32.02510 6.73969 8.08150 54.03900 26.71960 -67.75530 -37.68670 4.25961 3.97586 3.03845 -25.24320 10.80460 
-32.05110 93.28320 -31.60290 13.83510 9.10037 132.92101 -0.23059 10.85570 0.00426 -3.12950 21.99940 2.66044 -2.75774 6.25350 9.02498 -0.00000 -0.00000 0.00000 -89.34350 -47.26480 -73.27310 -26.00520 37.47450 -82.52490 12.98700 8.09135 -12.57610 14.88120 1.30165 4.83766 83.39730 -9.10489 68.88460 15.98570 32.71320 96.50590 17.67240 11.67130 6.77175 23.09870 -5.07077 -7.87604 -28.07660 7.11088 69.29510 2.64710 17.72080 -0.70591 -4.22345 -40.84110 -70.61860 -31.69090 6.40307 9.12071 53.41730 26.90540 -66.71960 -38.07440 4.38032 4.06315 4.02183 -29.24630 12.52290 
-32.02190 93.29600 -32.08390 13.70560 9.28434 134.87000 -0.47276 10.95640 -0.04368 -3.12818 22.13720 2.51300 -2.47377 5.99696 8.49952 -0.00000 -0.00000 0.00000 -88.29370 -46.07670 -73.18450 -24.82000 36.26060 -82.76960 13.17460 8.08043 -12.42220 15.27950 1.32964 4.86103 83.48890 -9.40048 68.87730 15.90680 32.77280 96.53790 17.36450 11.63890 6.75649 22.52900 -5.59368 -7.25137 -27.70150 7.89941 68.52980 2.86927 18.19690 -0.76973 -4.92184 -41.35070 -72.46240 -31.42070 6.12719 10.19480 52.72310 26.69370 -65.99240 -38.23400 4.10119 3.98408 4.79222 -32.35950 13.17910 
-31.98650 93.28170 -32.51320 13.53130 9.48642 136.70300 -0.75752 11.07920 -0.06577 -3.13481 22.29790 2.37173 -2.28073 5.74996 8.06219 -0.00000 -0.00000 0.00000 -87.41380 -44.94160 -73.23540 -23.75590 35.10730 -82.98720 13.34370 8.07887 -12.21320 15.55900 1.33847 4.81733 83.65340 -9.69281 68.96950 15.72350 32.85950 96.64270 17.11060 11.59920 6.66001 21.93100 -6.16727 -6.82282 -27.40830 8.69301 67.76760 2.99008 18.50710 -0.80687 -5.35669 -41.55240 -73.82270 -31.26440 5.88096 11.25140 52.04150 26.17680 -65.31740 -38.07460 3.56650 3.77900 5.21916 -34.36520 13.04330 
-31.95140 93.24540 -32.90360 13.27660 9.68153 138.45000 -1.03703 11.20520 -0.08101 -3.14657 22.45450 2.22511 -2.15109 5.47488 7.71558 -0.00000 -0.00000 0.00000 -86.72750 -43.90060 -73.42180 -22.94260 33.99980 -83.08770 13.35960 8.09694 -12.03100 15.73260 1.33374 4.73502 83.83800 -9.98969 69.18180 15.42930 32.93340 96.80920 16.96170 11.56460 6.52867 21.32080 -6.81862 -6.73752 -27.26870 9.39447 67.19540 2.97989 18.71090 -0.81109 -5.59003 -41.58310 -74.72440 -31.25480 5.64220 12.21270 51.38520 25.43830 -64.53080 -37.64090 2.91884 3.50785 5.38692 -35.47960 12.60260 
